<?xml version="1.0" standalone="no"?>
<!DOCTYPE svg PUBLIC "-//W3C//DTD SVG 20010904//EN"
 "http://www.w3.org/TR/2001/REC-SVG-20010904/DTD/svg10.dtd">
<svg version="1.0" xmlns="http://www.w3.org/2000/svg"
 width="2000.000000pt" height="1500.000000pt" viewBox="0 0 2000.000000 1500.000000"
 preserveAspectRatio="xMidYMid meet">

<g transform="translate(0.000000,1500.000000) scale(0.100000,-0.100000)"
fill="#000000" stroke="none">
<path d="M9879 11030 c-67 -11 -131 -42 -181 -88 l-43 -39 -879 -117 c-534
-71 -890 -123 -907 -132 -46 -24 -59 -61 -59 -173 0 -96 1 -102 28 -131 35
-40 78 -49 225 -50 93 0 118 -3 115 -13 -2 -7 -133 -334 -293 -726 -265 -651
-293 -714 -321 -732 -51 -31 -64 -72 -64 -193 0 -70 5 -118 14 -141 15 -36 67
-75 101 -75 11 0 69 -49 140 -120 l122 -120 448 0 448 0 122 120 c71 71 129
120 140 120 34 0 86 39 101 75 9 23 14 71 14 141 0 121 -13 162 -64 193 -28
18 -56 82 -323 738 -161 396 -293 722 -293 726 0 4 275 7 610 7 l610 0 0
-1275 0 -1275 -50 0 c-43 0 -56 -5 -88 -34 l-37 -34 -3 -124 -3 -123 -117
-117 -117 -118 -86 0 c-73 0 -90 -3 -114 -22 -43 -33 -55 -76 -55 -188 0 -112
12 -155 55 -188 l28 -22 829 0 c910 0 871 -3 903 60 21 41 21 259 0 300 -23
45 -62 60 -152 60 l-78 0 -123 123 -122 122 0 108 c0 154 -29 197 -135 197
l-45 0 0 1275 0 1275 615 0 615 0 -9 -22 c-84 -219 -586 -1434 -595 -1437 -6
-2 -26 -19 -43 -37 l-33 -32 0 -132 c0 -104 3 -138 16 -160 19 -31 63 -60 91
-60 10 0 59 -41 108 -91 50 -50 108 -104 129 -120 l39 -29 439 0 439 0 119
111 c66 60 122 114 125 120 4 5 15 9 27 9 31 0 75 30 93 64 14 25 16 55 13
164 l-3 134 -31 28 c-17 15 -36 29 -42 31 -6 2 -143 330 -306 729 l-295 725
142 6 c148 5 166 10 207 54 22 24 25 36 28 118 3 102 -11 145 -58 178 -20 14
-216 43 -905 135 -871 115 -880 117 -910 144 -90 82 -205 118 -316 100z m166
-214 c145 -111 53 -344 -127 -323 -94 12 -158 83 -158 177 0 68 30 122 86 157
56 34 146 29 199 -11z m-412 -161 c3 -30 17 -80 31 -110 l25 -55 -852 1 -852
1 690 93 c380 51 735 100 790 108 169 25 161 26 168 -38z m1432 -50 c435 -58
797 -107 805 -109 8 -2 -368 -4 -837 -5 l-852 -1 26 46 c17 30 27 67 31 110 4
51 8 64 21 64 9 0 372 -47 806 -105z m-1065 -1575 l0 -1340 -60 0 -60 0 0
1340 0 1340 60 0 60 0 0 -1340z m-1415 485 c142 -346 260 -638 262 -647 5 -17
-24 -18 -521 -18 -289 0 -526 3 -526 8 0 10 523 1292 526 1289 1 -1 118 -285
259 -632z m3232 -17 l261 -643 -525 -3 c-290 -1 -527 -1 -529 1 -4 4 520 1287
526 1287 3 0 123 -289 267 -642z m-2857 -868 l0 -30 -635 0 -635 0 0 30 0 30
635 0 635 0 0 -30z m3230 0 l0 -30 -640 0 -640 0 0 30 0 30 640 0 640 0 0 -30z
m-3405 -180 l-90 -90 -370 0 -370 0 -90 90 -90 90 550 0 550 0 -90 -90z m3227
0 l-89 -90 -374 0 -374 0 -90 90 -90 90 553 0 552 0 -88 -90z m-1832 -970 l0
-90 -245 0 -245 0 0 83 c0 46 3 87 7 90 3 4 114 7 245 7 l238 0 0 -90z m154
-271 c64 -61 116 -115 116 -120 0 -5 -223 -9 -517 -9 l-518 0 120 120 120 120
282 0 282 0 115 -111z m336 -219 l0 -30 -730 0 -730 0 0 30 0 30 730 0 730 0
0 -30z"/>
<path d="M11014 5694 c-230 -38 -419 -155 -501 -310 -51 -97 -66 -162 -61
-279 3 -93 6 -108 40 -176 82 -165 187 -235 530 -354 76 -26 158 -60 182 -76
45 -30 76 -79 76 -121 0 -37 -34 -83 -76 -103 -115 -54 -391 -29 -596 56 -39
16 -74 29 -78 29 -7 0 -130 -203 -130 -215 0 -24 287 -124 435 -151 143 -27
513 -27 635 0 367 80 560 268 560 545 0 165 -63 292 -192 387 -87 64 -151 94
-323 154 -248 86 -318 132 -318 208 0 96 91 162 224 162 65 0 190 -30 248 -59
22 -12 44 -21 50 -21 9 0 121 195 121 211 0 11 -154 64 -255 87 -187 43 -409
54 -571 26z"/>
<path d="M2650 4835 l0 -845 120 0 120 0 0 445 c0 256 4 445 9 445 5 0 248
-200 541 -445 l532 -445 204 0 204 0 0 845 0 845 -125 0 -125 0 -2 -447 -3
-446 -530 446 -530 446 -207 0 -208 1 0 -845z"/>
<path d="M4620 5676 c0 -2 128 -275 285 -607 l285 -603 0 -238 0 -238 345 0
345 0 0 239 0 238 250 602 c138 331 250 603 250 606 0 3 -66 5 -147 5 l-148 0
-164 -430 c-91 -236 -168 -427 -171 -425 -4 2 -98 196 -210 430 l-203 425
-359 0 c-197 0 -358 -2 -358 -4z"/>
<path d="M6954 5608 c18 -40 61 -135 96 -210 l63 -138 -46 -98 c-26 -54 -166
-340 -311 -635 l-265 -538 146 3 146 3 60 133 60 132 336 0 336 -1 60 -132 61
-132 371 -3 372 -2 -47 98 c-26 55 -211 435 -412 845 l-365 747 -347 0 -347 0
33 -72z m395 -861 c56 -121 101 -221 101 -223 0 -2 -94 -4 -210 -4 -115 0
-210 3 -210 6 0 19 206 452 212 446 4 -4 52 -105 107 -225z"/>
<path d="M8480 5674 c0 -3 128 -277 285 -609 l285 -604 0 -236 0 -235 345 0
345 0 0 242 0 242 246 591 c136 324 249 596 251 603 4 9 -29 12 -143 12 l-149
0 -165 -430 c-91 -236 -167 -430 -170 -430 -3 0 -97 194 -210 430 l-205 430
-357 0 c-197 0 -358 -3 -358 -6z"/>
<path d="M12350 4835 l0 -845 715 0 715 0 0 130 0 130 -385 0 -385 0 0 230 0
230 295 0 295 0 0 130 0 130 -295 0 -295 0 0 225 0 225 385 0 385 0 0 130 0
130 -715 0 -715 0 0 -845z"/>
<path d="M13930 5555 l0 -125 243 -2 242 -3 3 -717 2 -718 325 0 325 0 2 718
3 717 243 3 242 2 0 125 0 125 -815 0 -815 0 0 -125z"/>
<path d="M15800 5115 c0 -475 3 -578 16 -643 49 -241 209 -396 483 -470 87
-23 114 -25 301 -26 231 -1 276 7 410 71 57 27 94 55 155 117 92 92 134 166
165 290 19 75 20 112 20 653 l0 573 -119 0 -119 0 -4 -582 c-4 -511 -6 -589
-21 -634 -38 -114 -119 -184 -238 -204 -162 -28 -295 35 -358 170 l-26 55 -3
598 -3 597 -329 0 -330 0 0 -565z"/>
</g>
</svg>
